# xmcd
#
# Track frame offsets:
#	150
#	7350
#	32438
#	59622
#	100150
#	118198
#	142165
#	161365
#	176181
#
# Disc length: 2670 seconds
#
# Revision: 3
# Processed by: cddbd v1.5.2PL0 Copyright (c) Steve Scherf et al.
# Submitted via: CDmax 2.0
#
DISCID=800a6c09
DTITLE=Mike Bloomfield and Al Kooper - The Live Adventures Of Mike Bloomfiel
DTITLE=d and Al Kooper  Disc 1
DYEAR=1968
DGENRE=Blues
TTITLE0=Opening speech
TTITLE1=The 59th Street Bridge Song (Feelin' Groovy)
TTITLE2=I Wonder Who
TTITLE3=Her Holy Modal Highness
TTITLE4=The Weight
TTITLE5=Marry Ann
TTITLE6=Together 'Til the End of Time
TTITLE7=That's All Right
TTITLE8=Green Onions
EXTD=YEAR: 1968
EXTT0=
EXTT1=
EXTT2=
EXTT3=
EXTT4=
EXTT5=
EXTT6=
EXTT7=
EXTT8=
PLAYORDER=
